<svg width="70" height="80" viewBox="0 0 70 80" fill="none" xmlns="http://www.w3.org/2000/svg">
<path d="M35 46.6667C41.4341 46.6667 46.6666 40.6867 46.6666 33.3333C46.6666 25.98 41.4341 20 35 20C28.5658 20 23.3333 25.98 23.3333 33.3333C23.3333 40.6867 28.5658 46.6667 35 46.6667ZM35 26.6667C38.2171 26.6667 40.8333 29.6567 40.8333 33.3333C40.8333 37.01 38.2171 40 35 40C31.7829 40 29.1666 37.01 29.1666 33.3333C29.1666 29.6567 31.7829 26.6667 35 26.6667Z" fill="black"/>
<path d="M33.3084 72.7134C33.802 73.1163 34.3934 73.3329 35 73.3329C35.6066 73.3329 36.1981 73.1163 36.6917 72.7134C37.5784 71.9967 58.4179 54.8001 58.3334 33.3334C58.3334 18.6301 47.8654 6.66675 35 6.66675C22.1346 6.66675 11.6667 18.6301 11.6667 33.3167C11.5821 54.8001 32.4217 71.9967 33.3084 72.7134ZM35 13.3334C44.6513 13.3334 52.5 22.3034 52.5 33.3501C52.5613 48.1434 39.7017 61.4268 35 65.7834C30.3013 61.4234 17.4388 48.1367 17.5 33.3334C17.5 22.3034 25.3488 13.3334 35 13.3334Z" fill="black"/>
</svg>
