<svg width="70" height="80" viewBox="0 0 70 80" fill="none" xmlns="http://www.w3.org/2000/svg">
<path d="M53.9194 78.7558C53.2655 78.7537 52.6136 78.6718 51.9749 78.5114C39.8156 75.6367 28.6136 68.8967 19.6583 59.0669C10.894 49.2156 4.81555 36.6727 2.15828 22.9558C1.84496 21.2463 1.92186 19.4733 2.38159 17.8076C2.84132 16.1419 3.66841 14.6394 4.78328 13.4447L12.5611 4.88913C12.9583 4.45976 13.4303 4.13097 13.9463 3.9242C14.4623 3.71743 15.0106 3.63733 15.5555 3.68913C16.1205 3.75649 16.6657 3.96449 17.1528 4.2985C17.6399 4.63251 18.0571 5.08442 18.3749 5.62246L28.0972 22.0447C28.4618 22.6819 28.6378 23.436 28.5992 24.1961C28.5607 24.9562 28.3098 25.682 27.8833 26.2669L23.0027 32.9336C24.9465 37.8501 27.6992 42.2937 31.1111 46.0225C34.5008 49.8865 38.5074 52.9718 42.9138 55.1113L48.9611 49.6225C49.469 49.1637 50.087 48.8925 50.733 48.8449C51.379 48.7972 52.0225 48.9754 52.5777 49.3558L67.2583 60.2002C67.7621 60.544 68.1913 61.0136 68.5137 61.5739C68.8361 62.1341 69.0435 62.7705 69.1202 63.4353C69.1969 64.1002 69.1409 64.7762 68.9565 65.4128C68.7722 66.0494 68.4641 66.6301 68.0555 67.1114L60.4722 75.6891C59.6108 76.6688 58.5883 77.444 57.4638 77.9703C56.3392 78.4966 55.1346 78.7636 53.9194 78.7558ZM15.2444 8.08913L7.46661 16.6447C6.83944 17.3126 6.37517 18.1555 6.11947 19.0906C5.86378 20.0258 5.82546 21.0208 6.00828 21.978C8.47913 34.8494 14.1588 46.6276 22.3611 55.8891C30.7887 65.137 41.3303 71.4766 52.7722 74.178C53.6382 74.3849 54.5357 74.343 55.3841 74.056C56.2325 73.769 57.0053 73.2459 57.6333 72.5336L65.2166 63.9558L51.0416 53.4891L44.5472 59.4002C44.2985 59.6251 44.0056 59.7771 43.6938 59.843C43.382 59.9088 43.0608 59.8865 42.7583 59.778C37.3658 57.5073 32.4789 53.9029 28.4472 49.2225C24.277 44.7718 21.04 39.3025 18.9777 33.2225C18.8905 32.8544 18.8876 32.4668 18.9693 32.0971C19.051 31.7274 19.2146 31.3879 19.4444 31.1113L24.6944 23.9336L15.2444 8.08913Z" fill="black"/>
</svg>
