<svg width="70" height="80" viewBox="0 0 70 80" fill="none" xmlns="http://www.w3.org/2000/svg">
<path d="M60.375 26.8143L36.4861 13.3393C36.0239 13.0787 35.5154 12.9431 35 12.9431C34.4846 12.9431 33.9761 13.0787 33.5139 13.3393L9.625 26.8143C8.70918 27.3271 7.93708 28.1224 7.39591 29.1103C6.85474 30.0982 6.56607 31.2394 6.5625 32.4049V61.2502C6.5625 64.7018 9.04258 67.5002 12.1023 67.5002H57.9031C60.9629 67.5002 63.443 64.7018 63.443 61.2502V32.4049C63.4389 31.2387 63.1494 30.0971 62.6072 29.1091C62.0651 28.1211 61.2918 27.3262 60.375 26.8143V26.8143Z" stroke="black" stroke-width="2" stroke-linecap="round" stroke-linejoin="round"/>
<path d="M54.3224 57.5003L36.6502 41.791C36.0742 41.279 35.3653 41.001 34.6356 41.001C33.9059 41.001 33.1971 41.279 32.6211 41.791L14.9474 57.5003" stroke="black" stroke-width="2" stroke-linecap="round" stroke-linejoin="round"/>
<path d="M42.2912 46.0938L60.8849 30" stroke="black" stroke-width="2" stroke-linecap="round" stroke-linejoin="round"/>
<path d="M8.38495 30L27.3889 46.4062" stroke="black" stroke-width="2" stroke-linecap="round" stroke-linejoin="round"/>
</svg>
